<svg height="729" viewBox="0 0 729 729" width="729" xmlns="http://www.w3.org/2000/svg">
<rect fill="white" height="729" width="729" x="0" y="0"/>
<rect fill="purple" height="9" stroke="none" width="9" x="0" y="0"/>
<rect fill="purple" height="9" stroke="none" width="9" x="18" y="0"/>
<rect fill="purple" height="9" stroke="none" width="9" x="0" y="18"/>
<rect fill="purple" height="9" stroke="none" width="9" x="18" y="18"/>
<rect fill="purple" height="9" stroke="none" width="9" x="54" y="0"/>
<rect fill="purple" height="9" stroke="none" width="9" x="72" y="0"/>
<rect fill="purple" height="9" stroke="none" width="9" x="54" y="18"/>
<rect fill="purple" height="9" stroke="none" width="9" x="72" y="18"/>
<rect fill="purple" height="9" stroke="none" width="9" x="0" y="54"/>
<rect fill="purple" height="9" stroke="none" width="9" x="18" y="54"/>
<rect fill="purple" height="9" stroke="none" width="9" x="0" y="72"/>
<rect fill="purple" height="9" stroke="none" width="9" x="18" y="72"/>
<rect fill="purple" height="9" stroke="none" width="9" x="54" y="54"/>
<rect fill="purple" height="9" stroke="none" width="9" x="72" y="54"/>
<rect fill="purple" height="9" stroke="none" width="9" x="54" y="72"/>
<rect fill="purple" height="9" stroke="none" width="9" x="72" y="72"/>
<rect fill="purple" height="9" stroke="none" width="9" x="162" y="0"/>
<rect fill="purple" height="9" stroke="none" width="9" x="180" y="0"/>
<rect fill="purple" height="9" stroke="none" width="9" x="162" y="18"/>
<rect fill="purple" height="9" stroke="none" width="9" x="180" y="18"/>
<rect fill="purple" height="9" stroke="none" width="9" x="216" y="0"/>
<rect fill="purple" height="9" stroke="none" width="9" x="234" y="0"/>
<rect fill="purple" height="9" stroke="none" width="9" x="216" y="18"/>
<rect fill="purple" height="9" stroke="none" width="9" x="234" y="18"/>
<rect fill="purple" height="9" stroke="none" width="9" x="162" y="54"/>
<rect fill="purple" height="9" stroke="none" width="9" x="180" y="54"/>
<rect fill="purple" height="9" stroke="none" width="9" x="162" y="72"/>
<rect fill="purple" height="9" stroke="none" width="9" x="180" y="72"/>
<rect fill="purple" height="9" stroke="none" width="9" x="216" y="54"/>
<rect fill="purple" height="9" stroke="none" width="9" x="234" y="54"/>
<rect fill="purple" height="9" stroke="none" width="9" x="216" y="72"/>
<rect fill="purple" height="9" stroke="none" width="9" x="234" y="72"/>
<rect fill="purple" height="9" stroke="none" width="9" x="0" y="162"/>
<rect fill="purple" height="9" stroke="none" width="9" x="18" y="162"/>
<rect fill="purple" height="9" stroke="none" width="9" x="0" y="180"/>
<rect fill="purple" height="9" stroke="none" width="9" x="18" y="180"/>
<rect fill="purple" height="9" stroke="none" width="9" x="54" y="162"/>
<rect fill="purple" height="9" stroke="none" width="9" x="72" y="162"/>
<rect fill="purple" height="9" stroke="none" width="9" x="54" y="180"/>
<rect fill="purple" height="9" stroke="none" width="9" x="72" y="180"/>
<rect fill="purple" height="9" stroke="none" width="9" x="0" y="216"/>
<rect fill="purple" height="9" stroke="none" width="9" x="18" y="216"/>
<rect fill="purple" height="9" stroke="none" width="9" x="0" y="234"/>
<rect fill="purple" height="9" stroke="none" width="9" x="18" y="234"/>
<rect fill="purple" height="9" stroke="none" width="9" x="54" y="216"/>
<rect fill="purple" height="9" stroke="none" width="9" x="72" y="216"/>
<rect fill="purple" height="9" stroke="none" width="9" x="54" y="234"/>
<rect fill="purple" height="9" stroke="none" width="9" x="72" y="234"/>
<rect fill="purple" height="9" stroke="none" width="9" x="162" y="162"/>
<rect fill="purple" height="9" stroke="none" width="9" x="180" y="162"/>
<rect fill="purple" height="9" stroke="none" width="9" x="162" y="180"/>
<rect fill="purple" height="9" stroke="none" width="9" x="180" y="180"/>
<rect fill="purple" height="9" stroke="none" width="9" x="216" y="162"/>
<rect fill="purple" height="9" stroke="none" width="9" x="234" y="162"/>
<rect fill="purple" height="9" stroke="none" width="9" x="216" y="180"/>
<rect fill="purple" height="9" stroke="none" width="9" x="234" y="180"/>
<rect fill="purple" height="9" stroke="none" width="9" x="162" y="216"/>
<rect fill="purple" height="9" stroke="none" width="9" x="180" y="216"/>
<rect fill="purple" height="9" stroke="none" width="9" x="162" y="234"/>
<rect fill="purple" height="9" stroke="none" width="9" x="180" y="234"/>
<rect fill="purple" height="9" stroke="none" width="9" x="216" y="216"/>
<rect fill="purple" height="9" stroke="none" width="9" x="234" y="216"/>
<rect fill="purple" height="9" stroke="none" width="9" x="216" y="234"/>
<rect fill="purple" height="9" stroke="none" width="9" x="234" y="234"/>
<rect fill="purple" height="9" stroke="none" width="9" x="486" y="0"/>
<rect fill="purple" height="9" stroke="none" width="9" x="504" y="0"/>
<rect fill="purple" height="9" stroke="none" width="9" x="486" y="18"/>
<rect fill="purple" height="9" stroke="none" width="9" x="504" y="18"/>
<rect fill="purple" height="9" stroke="none" width="9" x="540" y="0"/>
<rect fill="purple" height="9" stroke="none" width="9" x="558" y="0"/>
<rect fill="purple" height="9" stroke="none" width="9" x="540" y="18"/>
<rect fill="purple" height="9" stroke="none" width="9" x="558" y="18"/>
<rect fill="purple" height="9" stroke="none" width="9" x="486" y="54"/>
<rect fill="purple" height="9" stroke="none" width="9" x="504" y="54"/>
<rect fill="purple" height="9" stroke="none" width="9" x="486" y="72"/>
<rect fill="purple" height="9" stroke="none" width="9" x="504" y="72"/>
<rect fill="purple" height="9" stroke="none" width="9" x="540" y="54"/>
<rect fill="purple" height="9" stroke="none" width="9" x="558" y="54"/>
<rect fill="purple" height="9" stroke="none" width="9" x="540" y="72"/>
<rect fill="purple" height="9" stroke="none" width="9" x="558" y="72"/>
<rect fill="purple" height="9" stroke="none" width="9" x="648" y="0"/>
<rect fill="purple" height="9" stroke="none" width="9" x="666" y="0"/>
<rect fill="purple" height="9" stroke="none" width="9" x="648" y="18"/>
<rect fill="purple" height="9" stroke="none" width="9" x="666" y="18"/>
<rect fill="purple" height="9" stroke="none" width="9" x="702" y="0"/>
<rect fill="purple" height="9" stroke="none" width="9" x="720" y="0"/>
<rect fill="purple" height="9" stroke="none" width="9" x="702" y="18"/>
<rect fill="purple" height="9" stroke="none" width="9" x="720" y="18"/>
<rect fill="purple" height="9" stroke="none" width="9" x="648" y="54"/>
<rect fill="purple" height="9" stroke="none" width="9" x="666" y="54"/>
<rect fill="purple" height="9" stroke="none" width="9" x="648" y="72"/>
<rect fill="purple" height="9" stroke="none" width="9" x="666" y="72"/>
<rect fill="purple" height="9" stroke="none" width="9" x="702" y="54"/>
<rect fill="purple" height="9" stroke="none" width="9" x="720" y="54"/>
<rect fill="purple" height="9" stroke="none" width="9" x="702" y="72"/>
<rect fill="purple" height="9" stroke="none" width="9" x="720" y="72"/>
<rect fill="purple" height="9" stroke="none" width="9" x="486" y="162"/>
<rect fill="purple" height="9" stroke="none" width="9" x="504" y="162"/>
<rect fill="purple" height="9" stroke="none" width="9" x="486" y="180"/>
<rect fill="purple" height="9" stroke="none" width="9" x="504" y="180"/>
<rect fill="purple" height="9" stroke="none" width="9" x="540" y="162"/>
<rect fill="purple" height="9" stroke="none" width="9" x="558" y="162"/>
<rect fill="purple" height="9" stroke="none" width="9" x="540" y="180"/>
<rect fill="purple" height="9" stroke="none" width="9" x="558" y="180"/>
<rect fill="purple" height="9" stroke="none" width="9" x="486" y="216"/>
<rect fill="purple" height="9" stroke="none" width="9" x="504" y="216"/>
<rect fill="purple" height="9" stroke="none" width="9" x="486" y="234"/>
<rect fill="purple" height="9" stroke="none" width="9" x="504" y="234"/>
<rect fill="purple" height="9" stroke="none" width="9" x="540" y="216"/>
<rect fill="purple" height="9" stroke="none" width="9" x="558" y="216"/>
<rect fill="purple" height="9" stroke="none" width="9" x="540" y="234"/>
<rect fill="purple" height="9" stroke="none" width="9" x="558" y="234"/>
<rect fill="purple" height="9" stroke="none" width="9" x="648" y="162"/>
<rect fill="purple" height="9" stroke="none" width="9" x="666" y="162"/>
<rect fill="purple" height="9" stroke="none" width="9" x="648" y="180"/>
<rect fill="purple" height="9" stroke="none" width="9" x="666" y="180"/>
<rect fill="purple" height="9" stroke="none" width="9" x="702" y="162"/>
<rect fill="purple" height="9" stroke="none" width="9" x="720" y="162"/>
<rect fill="purple" height="9" stroke="none" width="9" x="702" y="180"/>
<rect fill="purple" height="9" stroke="none" width="9" x="720" y="180"/>
<rect fill="purple" height="9" stroke="none" width="9" x="648" y="216"/>
<rect fill="purple" height="9" stroke="none" width="9" x="666" y="216"/>
<rect fill="purple" height="9" stroke="none" width="9" x="648" y="234"/>
<rect fill="purple" height="9" stroke="none" width="9" x="666" y="234"/>
<rect fill="purple" height="9" stroke="none" width="9" x="702" y="216"/>
<rect fill="purple" height="9" stroke="none" width="9" x="720" y="216"/>
<rect fill="purple" height="9" stroke="none" width="9" x="702" y="234"/>
<rect fill="purple" height="9" stroke="none" width="9" x="720" y="234"/>
<rect fill="purple" height="9" stroke="none" width="9" x="0" y="486"/>
<rect fill="purple" height="9" stroke="none" width="9" x="18" y="486"/>
<rect fill="purple" height="9" stroke="none" width="9" x="0" y="504"/>
<rect fill="purple" height="9" stroke="none" width="9" x="18" y="504"/>
<rect fill="purple" height="9" stroke="none" width="9" x="54" y="486"/>
<rect fill="purple" height="9" stroke="none" width="9" x="72" y="486"/>
<rect fill="purple" height="9" stroke="none" width="9" x="54" y="504"/>
<rect fill="purple" height="9" stroke="none" width="9" x="72" y="504"/>
<rect fill="purple" height="9" stroke="none" width="9" x="0" y="540"/>
<rect fill="purple" height="9" stroke="none" width="9" x="18" y="540"/>
<rect fill="purple" height="9" stroke="none" width="9" x="0" y="558"/>
<rect fill="purple" height="9" stroke="none" width="9" x="18" y="558"/>
<rect fill="purple" height="9" stroke="none" width="9" x="54" y="540"/>
<rect fill="purple" height="9" stroke="none" width="9" x="72" y="540"/>
<rect fill="purple" height="9" stroke="none" width="9" x="54" y="558"/>
<rect fill="purple" height="9" stroke="none" width="9" x="72" y="558"/>
<rect fill="purple" height="9" stroke="none" width="9" x="162" y="486"/>
<rect fill="purple" height="9" stroke="none" width="9" x="180" y="486"/>
<rect fill="purple" height="9" stroke="none" width="9" x="162" y="504"/>
<rect fill="purple" height="9" stroke="none" width="9" x="180" y="504"/>
<rect fill="purple" height="9" stroke="none" width="9" x="216" y="486"/>
<rect fill="purple" height="9" stroke="none" width="9" x="234" y="486"/>
<rect fill="purple" height="9" stroke="none" width="9" x="216" y="504"/>
<rect fill="purple" height="9" stroke="none" width="9" x="234" y="504"/>
<rect fill="purple" height="9" stroke="none" width="9" x="162" y="540"/>
<rect fill="purple" height="9" stroke="none" width="9" x="180" y="540"/>
<rect fill="purple" height="9" stroke="none" width="9" x="162" y="558"/>
<rect fill="purple" height="9" stroke="none" width="9" x="180" y="558"/>
<rect fill="purple" height="9" stroke="none" width="9" x="216" y="540"/>
<rect fill="purple" height="9" stroke="none" width="9" x="234" y="540"/>
<rect fill="purple" height="9" stroke="none" width="9" x="216" y="558"/>
<rect fill="purple" height="9" stroke="none" width="9" x="234" y="558"/>
<rect fill="purple" height="9" stroke="none" width="9" x="0" y="648"/>
<rect fill="purple" height="9" stroke="none" width="9" x="18" y="648"/>
<rect fill="purple" height="9" stroke="none" width="9" x="0" y="666"/>
<rect fill="purple" height="9" stroke="none" width="9" x="18" y="666"/>
<rect fill="purple" height="9" stroke="none" width="9" x="54" y="648"/>
<rect fill="purple" height="9" stroke="none" width="9" x="72" y="648"/>
<rect fill="purple" height="9" stroke="none" width="9" x="54" y="666"/>
<rect fill="purple" height="9" stroke="none" width="9" x="72" y="666"/>
<rect fill="purple" height="9" stroke="none" width="9" x="0" y="702"/>
<rect fill="purple" height="9" stroke="none" width="9" x="18" y="702"/>
<rect fill="purple" height="9" stroke="none" width="9" x="0" y="720"/>
<rect fill="purple" height="9" stroke="none" width="9" x="18" y="720"/>
<rect fill="purple" height="9" stroke="none" width="9" x="54" y="702"/>
<rect fill="purple" height="9" stroke="none" width="9" x="72" y="702"/>
<rect fill="purple" height="9" stroke="none" width="9" x="54" y="720"/>
<rect fill="purple" height="9" stroke="none" width="9" x="72" y="720"/>
<rect fill="purple" height="9" stroke="none" width="9" x="162" y="648"/>
<rect fill="purple" height="9" stroke="none" width="9" x="180" y="648"/>
<rect fill="purple" height="9" stroke="none" width="9" x="162" y="666"/>
<rect fill="purple" height="9" stroke="none" width="9" x="180" y="666"/>
<rect fill="purple" height="9" stroke="none" width="9" x="216" y="648"/>
<rect fill="purple" height="9" stroke="none" width="9" x="234" y="648"/>
<rect fill="purple" height="9" stroke="none" width="9" x="216" y="666"/>
<rect fill="purple" height="9" stroke="none" width="9" x="234" y="666"/>
<rect fill="purple" height="9" stroke="none" width="9" x="162" y="702"/>
<rect fill="purple" height="9" stroke="none" width="9" x="180" y="702"/>
<rect fill="purple" height="9" stroke="none" width="9" x="162" y="720"/>
<rect fill="purple" height="9" stroke="none" width="9" x="180" y="720"/>
<rect fill="purple" height="9" stroke="none" width="9" x="216" y="702"/>
<rect fill="purple" height="9" stroke="none" width="9" x="234" y="702"/>
<rect fill="purple" height="9" stroke="none" width="9" x="216" y="720"/>
<rect fill="purple" height="9" stroke="none" width="9" x="234" y="720"/>
<rect fill="purple" height="9" stroke="none" width="9" x="486" y="486"/>
<rect fill="purple" height="9" stroke="none" width="9" x="504" y="486"/>
<rect fill="purple" height="9" stroke="none" width="9" x="486" y="504"/>
<rect fill="purple" height="9" stroke="none" width="9" x="504" y="504"/>
<rect fill="purple" height="9" stroke="none" width="9" x="540" y="486"/>
<rect fill="purple" height="9" stroke="none" width="9" x="558" y="486"/>
<rect fill="purple" height="9" stroke="none" width="9" x="540" y="504"/>
<rect fill="purple" height="9" stroke="none" width="9" x="558" y="504"/>
<rect fill="purple" height="9" stroke="none" width="9" x="486" y="540"/>
<rect fill="purple" height="9" stroke="none" width="9" x="504" y="540"/>
<rect fill="purple" height="9" stroke="none" width="9" x="486" y="558"/>
<rect fill="purple" height="9" stroke="none" width="9" x="504" y="558"/>
<rect fill="purple" height="9" stroke="none" width="9" x="540" y="540"/>
<rect fill="purple" height="9" stroke="none" width="9" x="558" y="540"/>
<rect fill="purple" height="9" stroke="none" width="9" x="540" y="558"/>
<rect fill="purple" height="9" stroke="none" width="9" x="558" y="558"/>
<rect fill="purple" height="9" stroke="none" width="9" x="648" y="486"/>
<rect fill="purple" height="9" stroke="none" width="9" x="666" y="486"/>
<rect fill="purple" height="9" stroke="none" width="9" x="648" y="504"/>
<rect fill="purple" height="9" stroke="none" width="9" x="666" y="504"/>
<rect fill="purple" height="9" stroke="none" width="9" x="702" y="486"/>
<rect fill="purple" height="9" stroke="none" width="9" x="720" y="486"/>
<rect fill="purple" height="9" stroke="none" width="9" x="702" y="504"/>
<rect fill="purple" height="9" stroke="none" width="9" x="720" y="504"/>
<rect fill="purple" height="9" stroke="none" width="9" x="648" y="540"/>
<rect fill="purple" height="9" stroke="none" width="9" x="666" y="540"/>
<rect fill="purple" height="9" stroke="none" width="9" x="648" y="558"/>
<rect fill="purple" height="9" stroke="none" width="9" x="666" y="558"/>
<rect fill="purple" height="9" stroke="none" width="9" x="702" y="540"/>
<rect fill="purple" height="9" stroke="none" width="9" x="720" y="540"/>
<rect fill="purple" height="9" stroke="none" width="9" x="702" y="558"/>
<rect fill="purple" height="9" stroke="none" width="9" x="720" y="558"/>
<rect fill="purple" height="9" stroke="none" width="9" x="486" y="648"/>
<rect fill="purple" height="9" stroke="none" width="9" x="504" y="648"/>
<rect fill="purple" height="9" stroke="none" width="9" x="486" y="666"/>
<rect fill="purple" height="9" stroke="none" width="9" x="504" y="666"/>
<rect fill="purple" height="9" stroke="none" width="9" x="540" y="648"/>
<rect fill="purple" height="9" stroke="none" width="9" x="558" y="648"/>
<rect fill="purple" height="9" stroke="none" width="9" x="540" y="666"/>
<rect fill="purple" height="9" stroke="none" width="9" x="558" y="666"/>
<rect fill="purple" height="9" stroke="none" width="9" x="486" y="702"/>
<rect fill="purple" height="9" stroke="none" width="9" x="504" y="702"/>
<rect fill="purple" height="9" stroke="none" width="9" x="486" y="720"/>
<rect fill="purple" height="9" stroke="none" width="9" x="504" y="720"/>
<rect fill="purple" height="9" stroke="none" width="9" x="540" y="702"/>
<rect fill="purple" height="9" stroke="none" width="9" x="558" y="702"/>
<rect fill="purple" height="9" stroke="none" width="9" x="540" y="720"/>
<rect fill="purple" height="9" stroke="none" width="9" x="558" y="720"/>
<rect fill="purple" height="9" stroke="none" width="9" x="648" y="648"/>
<rect fill="purple" height="9" stroke="none" width="9" x="666" y="648"/>
<rect fill="purple" height="9" stroke="none" width="9" x="648" y="666"/>
<rect fill="purple" height="9" stroke="none" width="9" x="666" y="666"/>
<rect fill="purple" height="9" stroke="none" width="9" x="702" y="648"/>
<rect fill="purple" height="9" stroke="none" width="9" x="720" y="648"/>
<rect fill="purple" height="9" stroke="none" width="9" x="702" y="666"/>
<rect fill="purple" height="9" stroke="none" width="9" x="720" y="666"/>
<rect fill="purple" height="9" stroke="none" width="9" x="648" y="702"/>
<rect fill="purple" height="9" stroke="none" width="9" x="666" y="702"/>
<rect fill="purple" height="9" stroke="none" width="9" x="648" y="720"/>
<rect fill="purple" height="9" stroke="none" width="9" x="666" y="720"/>
<rect fill="purple" height="9" stroke="none" width="9" x="702" y="702"/>
<rect fill="purple" height="9" stroke="none" width="9" x="720" y="702"/>
<rect fill="purple" height="9" stroke="none" width="9" x="702" y="720"/>
<rect fill="purple" height="9" stroke="none" width="9" x="720" y="720"/>
</svg>