<svg height="729" viewBox="0 0 729 729" width="729" xmlns="http://www.w3.org/2000/svg">
<rect fill="white" height="729" width="729" x="0" y="0"/>
<rect fill="purple" height="27" stroke="none" width="27" x="0" y="0"/>
<rect fill="purple" height="27" stroke="none" width="27" x="54" y="0"/>
<rect fill="purple" height="27" stroke="none" width="27" x="0" y="54"/>
<rect fill="purple" height="27" stroke="none" width="27" x="54" y="54"/>
<rect fill="purple" height="27" stroke="none" width="27" x="162" y="0"/>
<rect fill="purple" height="27" stroke="none" width="27" x="216" y="0"/>
<rect fill="purple" height="27" stroke="none" width="27" x="162" y="54"/>
<rect fill="purple" height="27" stroke="none" width="27" x="216" y="54"/>
<rect fill="purple" height="27" stroke="none" width="27" x="0" y="162"/>
<rect fill="purple" height="27" stroke="none" width="27" x="54" y="162"/>
<rect fill="purple" height="27" stroke="none" width="27" x="0" y="216"/>
<rect fill="purple" height="27" stroke="none" width="27" x="54" y="216"/>
<rect fill="purple" height="27" stroke="none" width="27" x="162" y="162"/>
<rect fill="purple" height="27" stroke="none" width="27" x="216" y="162"/>
<rect fill="purple" height="27" stroke="none" width="27" x="162" y="216"/>
<rect fill="purple" height="27" stroke="none" width="27" x="216" y="216"/>
<rect fill="purple" height="27" stroke="none" width="27" x="486" y="0"/>
<rect fill="purple" height="27" stroke="none" width="27" x="540" y="0"/>
<rect fill="purple" height="27" stroke="none" width="27" x="486" y="54"/>
<rect fill="purple" height="27" stroke="none" width="27" x="540" y="54"/>
<rect fill="purple" height="27" stroke="none" width="27" x="648" y="0"/>
<rect fill="purple" height="27" stroke="none" width="27" x="702" y="0"/>
<rect fill="purple" height="27" stroke="none" width="27" x="648" y="54"/>
<rect fill="purple" height="27" stroke="none" width="27" x="702" y="54"/>
<rect fill="purple" height="27" stroke="none" width="27" x="486" y="162"/>
<rect fill="purple" height="27" stroke="none" width="27" x="540" y="162"/>
<rect fill="purple" height="27" stroke="none" width="27" x="486" y="216"/>
<rect fill="purple" height="27" stroke="none" width="27" x="540" y="216"/>
<rect fill="purple" height="27" stroke="none" width="27" x="648" y="162"/>
<rect fill="purple" height="27" stroke="none" width="27" x="702" y="162"/>
<rect fill="purple" height="27" stroke="none" width="27" x="648" y="216"/>
<rect fill="purple" height="27" stroke="none" width="27" x="702" y="216"/>
<rect fill="purple" height="27" stroke="none" width="27" x="0" y="486"/>
<rect fill="purple" height="27" stroke="none" width="27" x="54" y="486"/>
<rect fill="purple" height="27" stroke="none" width="27" x="0" y="540"/>
<rect fill="purple" height="27" stroke="none" width="27" x="54" y="540"/>
<rect fill="purple" height="27" stroke="none" width="27" x="162" y="486"/>
<rect fill="purple" height="27" stroke="none" width="27" x="216" y="486"/>
<rect fill="purple" height="27" stroke="none" width="27" x="162" y="540"/>
<rect fill="purple" height="27" stroke="none" width="27" x="216" y="540"/>
<rect fill="purple" height="27" stroke="none" width="27" x="0" y="648"/>
<rect fill="purple" height="27" stroke="none" width="27" x="54" y="648"/>
<rect fill="purple" height="27" stroke="none" width="27" x="0" y="702"/>
<rect fill="purple" height="27" stroke="none" width="27" x="54" y="702"/>
<rect fill="purple" height="27" stroke="none" width="27" x="162" y="648"/>
<rect fill="purple" height="27" stroke="none" width="27" x="216" y="648"/>
<rect fill="purple" height="27" stroke="none" width="27" x="162" y="702"/>
<rect fill="purple" height="27" stroke="none" width="27" x="216" y="702"/>
<rect fill="purple" height="27" stroke="none" width="27" x="486" y="486"/>
<rect fill="purple" height="27" stroke="none" width="27" x="540" y="486"/>
<rect fill="purple" height="27" stroke="none" width="27" x="486" y="540"/>
<rect fill="purple" height="27" stroke="none" width="27" x="540" y="540"/>
<rect fill="purple" height="27" stroke="none" width="27" x="648" y="486"/>
<rect fill="purple" height="27" stroke="none" width="27" x="702" y="486"/>
<rect fill="purple" height="27" stroke="none" width="27" x="648" y="540"/>
<rect fill="purple" height="27" stroke="none" width="27" x="702" y="540"/>
<rect fill="purple" height="27" stroke="none" width="27" x="486" y="648"/>
<rect fill="purple" height="27" stroke="none" width="27" x="540" y="648"/>
<rect fill="purple" height="27" stroke="none" width="27" x="486" y="702"/>
<rect fill="purple" height="27" stroke="none" width="27" x="540" y="702"/>
<rect fill="purple" height="27" stroke="none" width="27" x="648" y="648"/>
<rect fill="purple" height="27" stroke="none" width="27" x="702" y="648"/>
<rect fill="purple" height="27" stroke="none" width="27" x="648" y="702"/>
<rect fill="purple" height="27" stroke="none" width="27" x="702" y="702"/>
</svg>